<?xml version="1.0" encoding="UTF-8" standalone="no"?>
<!-- Created with Inkscape (http://www.inkscape.org/) -->

<svg
   xmlns:dc="http://purl.org/dc/elements/1.1/"
   xmlns:cc="http://creativecommons.org/ns#"
   xmlns:rdf="http://www.w3.org/1999/02/22-rdf-syntax-ns#"
   xmlns:svg="http://www.w3.org/2000/svg"
   xmlns="http://www.w3.org/2000/svg"
   xmlns:xlink="http://www.w3.org/1999/xlink"
   xmlns:sodipodi="http://sodipodi.sourceforge.net/DTD/sodipodi-0.dtd"
   xmlns:inkscape="http://www.inkscape.org/namespaces/inkscape"
   width="849.96667"
   height="967.58051"
   id="svg2"
   version="1.1"
   inkscape:version="0.47 r22583"
   sodipodi:docname="WWUwifi.svg"
   style="display:inline">
  <defs
     id="defs4">
    <linearGradient
       id="linearGradient4158">
      <stop
         style="stop-color:#507cff;stop-opacity:1"
         offset="0"
         id="stop4160" />
      <stop
         style="stop-color:#507cff;stop-opacity:0;"
         offset="1"
         id="stop4162" />
    </linearGradient>
    <linearGradient
       id="linearGradient4126">
      <stop
         style="stop-color:#2d7dfc;stop-opacity:1;"
         offset="0"
         id="stop4128" />
      <stop
         style="stop-color:#2d7dfc;stop-opacity:0;"
         offset="1"
         id="stop4130" />
    </linearGradient>
    <inkscape:perspective
       sodipodi:type="inkscape:persp3d"
       inkscape:vp_x="0 : 526.18109 : 1"
       inkscape:vp_y="0 : 1000 : 0"
       inkscape:vp_z="744.09448 : 526.18109 : 1"
       inkscape:persp3d-origin="372.04724 : 350.78739 : 1"
       id="perspective10" />
    <inkscape:perspective
       id="perspective2884"
       inkscape:persp3d-origin="0.5 : 0.33333333 : 1"
       inkscape:vp_z="1 : 0.5 : 1"
       inkscape:vp_y="0 : 1000 : 0"
       inkscape:vp_x="0 : 0.5 : 1"
       sodipodi:type="inkscape:persp3d" />
    <inkscape:perspective
       id="perspective2910"
       inkscape:persp3d-origin="0.5 : 0.33333333 : 1"
       inkscape:vp_z="1 : 0.5 : 1"
       inkscape:vp_y="0 : 1000 : 0"
       inkscape:vp_x="0 : 0.5 : 1"
       sodipodi:type="inkscape:persp3d" />
    <inkscape:perspective
       id="perspective2933"
       inkscape:persp3d-origin="0.5 : 0.33333333 : 1"
       inkscape:vp_z="1 : 0.5 : 1"
       inkscape:vp_y="0 : 1000 : 0"
       inkscape:vp_x="0 : 0.5 : 1"
       sodipodi:type="inkscape:persp3d" />
    <inkscape:perspective
       id="perspective4100"
       inkscape:persp3d-origin="0.5 : 0.33333333 : 1"
       inkscape:vp_z="1 : 0.5 : 1"
       inkscape:vp_y="0 : 1000 : 0"
       inkscape:vp_x="0 : 0.5 : 1"
       sodipodi:type="inkscape:persp3d" />
    <radialGradient
       inkscape:collect="always"
       xlink:href="#linearGradient4126"
       id="radialGradient4134"
       cx="391.06989"
       cy="616.06604"
       fx="391.06989"
       fy="616.06604"
       r="203.93864"
       gradientTransform="matrix(1.1931755,0,0,0.44384115,-75.545126,342.63059)"
       gradientUnits="userSpaceOnUse" />
    <inkscape:perspective
       id="perspective4197"
       inkscape:persp3d-origin="0.5 : 0.33333333 : 1"
       inkscape:vp_z="1 : 0.5 : 1"
       inkscape:vp_y="0 : 1000 : 0"
       inkscape:vp_x="0 : 0.5 : 1"
       sodipodi:type="inkscape:persp3d" />
    <inkscape:perspective
       id="perspective4220"
       inkscape:persp3d-origin="0.5 : 0.33333333 : 1"
       inkscape:vp_z="1 : 0.5 : 1"
       inkscape:vp_y="0 : 1000 : 0"
       inkscape:vp_x="0 : 0.5 : 1"
       sodipodi:type="inkscape:persp3d" />
    <inkscape:perspective
       id="perspective4245"
       inkscape:persp3d-origin="0.5 : 0.33333333 : 1"
       inkscape:vp_z="1 : 0.5 : 1"
       inkscape:vp_y="0 : 1000 : 0"
       inkscape:vp_x="0 : 0.5 : 1"
       sodipodi:type="inkscape:persp3d" />
    <inkscape:perspective
       id="perspective4267"
       inkscape:persp3d-origin="0.5 : 0.33333333 : 1"
       inkscape:vp_z="1 : 0.5 : 1"
       inkscape:vp_y="0 : 1000 : 0"
       inkscape:vp_x="0 : 0.5 : 1"
       sodipodi:type="inkscape:persp3d" />
    <inkscape:perspective
       id="perspective4289"
       inkscape:persp3d-origin="0.5 : 0.33333333 : 1"
       inkscape:vp_z="1 : 0.5 : 1"
       inkscape:vp_y="0 : 1000 : 0"
       inkscape:vp_x="0 : 0.5 : 1"
       sodipodi:type="inkscape:persp3d" />
  </defs>
  <sodipodi:namedview
     id="base"
     pagecolor="#fdfdfd"
     bordercolor="#666666"
     borderopacity="1.0"
     inkscape:pageopacity="1"
     inkscape:pageshadow="2"
     inkscape:zoom="0.175"
     inkscape:cx="564.25183"
     inkscape:cy="41.670101"
     inkscape:document-units="px"
     inkscape:current-layer="layer5"
     showgrid="false"
     inkscape:window-width="1024"
     inkscape:window-height="572"
     inkscape:window-x="0"
     inkscape:window-y="1"
     inkscape:window-maximized="1" />
  <metadata
     id="metadata7">
    <rdf:RDF>
      <cc:Work
         rdf:about="">
        <dc:format>image/svg+xml</dc:format>
        <dc:type
           rdf:resource="http://purl.org/dc/dcmitype/StillImage" />
        <dc:title />
      </cc:Work>
    </rdf:RDF>
  </metadata>
  <g
     inkscape:groupmode="layer"
     id="layer6"
     inkscape:label="Layer#4"
     transform="translate(35.266022,32.575436)">
    <path
       style="fill:#ffffff;fill-opacity:1;stroke:#ffffff;stroke-width:1px;stroke-linecap:butt;stroke-linejoin:miter;stroke-opacity:1"
       d="m 201.42858,730.21932 c 0,0 76.42857,132.85714 183.57142,201.42857 l 50.71429,2.85715 125,-149.28571 0,-40 33.57142,-111.42858 -343.57142,9.28572 -58.57143,-10.71429 2.14285,50 7.14287,47.85714 z"
       id="path4304" />
  </g>
  <g
     inkscape:groupmode="layer"
     id="layer4"
     inkscape:label="Layer#2"
     transform="translate(35.266022,32.575436)">
    <path
       style="fill:#ffffff;fill-opacity:1;stroke:#000000;stroke-width:11.25;stroke-linecap:round;stroke-linejoin:round;stroke-miterlimit:4;stroke-opacity:1;stroke-dasharray:none;display:inline"
       d="M 226.21849,448.33391 C -59.4958,274.0482 63.36134,76.905337 63.36134,76.905337 c 0,0 -107.142854,94.285713 -91.428569,194.285713 15.714289,100 39.999999,168.57143 222.857139,327.14286 l -2.85714,-1.42857 34.28572,-148.57143 z"
       id="path4156" />
    <path
       style="fill:#ffffff;fill-opacity:1;stroke:#000000;stroke-width:11.25;stroke-linecap:round;stroke-linejoin:round;stroke-miterlimit:4;stroke-opacity:1;stroke-dasharray:none;display:inline"
       d="M 553.21612,454.04819 C 838.93041,279.76248 716.07327,82.619623 716.07327,82.619623 c 0,0 107.14285,94.285707 91.42857,194.285707 -15.71429,100 -40,168.57143 -222.85714,327.14286 l 2.85714,-1.42857 -34.28572,-148.57143 z"
       id="path4156-5" />
  </g>
  <g
     inkscape:label="Layer 1"
     inkscape:groupmode="layer"
     id="layer1"
     style="display:inline"
     transform="translate(35.266022,32.575436)">
    <path
       style="fill:none;stroke:#000000;stroke-width:7;stroke-linecap:butt;stroke-linejoin:round;stroke-miterlimit:4;stroke-opacity:1;stroke-dasharray:none"
       d="m 205.71429,729.50504 c -114.285719,-365.71429 180,-485.71429 180,-485.71429 0,0 222.85714,91.42858 220,402.85715 0,0 2.85714,49.28571 -47.85715,97.14285 l 0,39.28572 -123.57143,147.14286 -47.85714,-0.71429 2.14286,-31.42857 c 0,0 -57.85714,-25 -1.42857,-43.57143 0,0 -20,-30 -62.14286,1.42857"
       id="path2894" />
    <path
       style="fill:none;stroke:#000000;stroke-width:7;stroke-linecap:butt;stroke-linejoin:miter;stroke-miterlimit:4;stroke-opacity:1;stroke-dasharray:none"
       d="m 334.28571,767.36218 c 0,0 7.14286,12.85715 -30,29.28572"
       id="path2896" />
    <path
       style="fill:none;stroke:#000000;stroke-width:7;stroke-linecap:butt;stroke-linejoin:miter;stroke-miterlimit:4;stroke-opacity:1;stroke-dasharray:none"
       d="m 326.42857,784.50504 62.14286,44.28571"
       id="path2898" />
    <path
       style="fill:none;stroke:#000000;stroke-width:7;stroke-linecap:butt;stroke-linejoin:miter;stroke-miterlimit:4;stroke-opacity:1;stroke-dasharray:none"
       d="m 387.5,852.71933 1.07143,-11.07143 -0.71429,-155.71429 32.83838,-1.48754 77.16162,-33.51246 -37.14285,0 c 0,0 -65,28.57143 -144.28572,0 l -37.49999,-1.60714 c 0,0 18.92856,10.17857 80.35713,36.60714 0,0 -38.03571,36.07143 -83.03571,5.35715 0,0 -27.67857,-17.50001 -69.10714,-57.50001 l -12.85715,0.71429 c 0,0 -3.57142,42.14286 10.71429,95.71429"
       id="path2900"
       sodipodi:nodetypes="ccccccccccccc" />
    <path
       style="fill:#000000;stroke-width:7;stroke-linecap:round;stroke-linejoin:round;stroke-miterlimit:4;stroke-dasharray:none"
       d="m 389.97535,911.89222 c 0,-14.47809 -0.63524,-15.9694 -8.54452,-20.05946 -4.69949,-2.4302 -10.65466,-7.63903 -13.23371,-11.57514 -4.36155,-6.65657 -4.34899,-7.53254 0.17966,-12.53663 2.67786,-2.959 8.47508,-6.87374 12.88271,-8.69946 4.40763,-1.82568 7.96928,-4.83602 7.91478,-6.68962 -0.0545,-1.85363 0.10345,-39.69163 0.351,-84.08449 l 0.45008,-80.71429 14.64554,0 c 11.49083,0 22.72263,-3.489 52.14286,-16.19748 20.62352,-8.90863 38.71874,-17.26577 40.2116,-18.57143 4.97174,-4.34834 -38.76936,-2.44637 -56.58758,2.46057 -26.84793,7.3936 -79.99417,6.71014 -107.73752,-1.38551 -21.3467,-6.22906 -54.10347,-8.58115 -54.10347,-3.88486 0,1.33169 17.5619,10.20109 39.02644,19.7098 l 39.02645,17.28851 -12.079,6.16226 c -19.46321,9.92937 -36.85571,10.68466 -54.93244,2.38549 -15.79847,-7.25323 -50.68288,-33.91349 -68.0305,-51.992 -7.40718,-7.71929 -12.18446,-10.26106 -19.28571,-10.26106 l -9.43953,0 -0.34057,16.42857 -0.34057,16.42857 -3.86994,-18.57143 c -2.12846,-10.21428 -4.71407,-36.57142 -5.74579,-58.57142 -6.469,-137.94254 56.19168,-255.63137 173.98859,-326.78407 13.3346,-8.05448 26.25959,-14.64451 28.7222,-14.64451 5.1843,0 28.40197,13.22926 49.01466,27.92818 63.34405,45.17072 115.29662,116.53745 141.90168,194.92897 15.41774,45.42822 22.82074,86.18323 26.78906,147.47877 3.03386,46.86148 -5.51337,74.88966 -33.31609,109.2506 -13.53917,16.73283 -13.94608,17.78571 -13.94608,36.08594 l 0,18.85026 -60.71429,72.64134 -60.71428,72.64137 -22.14286,0.0971 -22.14286,0.0974 0,-15.64091 z"
       id="path4085" />
  </g>
  <g
     inkscape:groupmode="layer"
     id="layer3"
     inkscape:label="Layer#1"
     style="display:inline"
     transform="translate(35.266022,32.575436)">
    <path
       style="fill:#ffffff;fill-opacity:1;stroke:#000000;stroke-width:1px;stroke-linecap:butt;stroke-linejoin:miter;stroke-opacity:1"
       d="m 511.34192,654.47966 c 0,0 -38.21429,66.78571 -95.35715,40.35714 0,0 -3.57143,-8.21428 5.35715,-11.07143 8.92857,-2.85714 71.07143,-28.92857 71.07143,-28.92857 l 18.92857,-0.35714 z"
       id="path4090" />
    <path
       style="fill:#ffffff;fill-opacity:1;stroke:#000000;stroke-width:1px;stroke-linecap:butt;stroke-linejoin:miter;stroke-opacity:1"
       d="m 259.1709,651.89838 c 0,0 38.21429,66.78571 95.35715,40.35714 0,0 3.57143,-8.21428 -5.35715,-11.07143 -8.92857,-2.85714 -71.07143,-28.92857 -71.07143,-28.92857 l -18.92857,-0.35714 z"
       id="path4090-8" />
    <path
       style="fill:#ffffff;fill-opacity:1;stroke:#000000;stroke-width:1px;stroke-linecap:butt;stroke-linejoin:miter;stroke-opacity:1"
       d="m 412.85714,716.6479 c 0,0 74.28572,38.57143 130,-28.57143 0,0 25.71429,54.28571 -78.57143,98.57143 0,0 -32.85714,-11.42857 -51.42857,-70 z"
       id="path4114" />
    <path
       style="fill:url(#radialGradient4134);fill-opacity:1;stroke:#000000;stroke-width:5;stroke-miterlimit:4;stroke-opacity:1;stroke-dasharray:none"
       d="m 200,575.14754 c 0,0 185.71429,141.42857 385.71429,4.28571 0,0 20.91206,11.76948 0,21.42857 -25.65417,11.84942 -82.36813,59.58487 -202.85715,57.14286 -109.17429,-2.21269 -150.08423,-41.54176 -187.14285,-62.85714 -13.74782,-7.90747 -10,-25.71429 4.28571,-20 z"
       id="path4116"
       sodipodi:nodetypes="ccsssc" />
    <path
       style="fill:none;stroke:#000000;stroke-width:1px;stroke-linecap:butt;stroke-linejoin:miter;stroke-opacity:1"
       d="m 194.7069,577.84303 c 0,0 42.42641,-224.25387 195.9696,-307.08638"
       id="path4136" />
    <path
       id="path4138"
       d="m 586.31958,578.0216 c 0,0 -42.42641,-224.25387 -195.9696,-307.08638"
       style="fill:none;stroke:#000000;stroke-width:1px;stroke-linecap:butt;stroke-linejoin:miter;stroke-opacity:1" />
    <path
       style="fill:#152951;fill-opacity:1;stroke:#000000;stroke-width:7.14285707;stroke-linecap:round;stroke-linejoin:round;stroke-miterlimit:4;stroke-opacity:1;stroke-dasharray:none"
       d="m 360.2323,633.13382 c -51.73631,-6.94765 -101.33931,-24.76397 -144.66375,-51.96012 -8.2917,-5.20497 -15.82059,-9.46357 -16.73087,-9.46357 -0.91028,0 -1.3205,-1.125 -0.91159,-2.5 0.4089,-1.375 2.38325,-9.05476 4.38743,-17.06613 15.89764,-63.54788 45.06337,-147.4078 80.67418,-194.71959 23.04172,-30.61276 58.8994,-63.78654 80.74361,-74.11261 14.98532,-7.08377 24.57256,-10.1731 26.44592,-10.1731 5.30407,0 30.50246,-1.55657 62.34448,27.45453 112.63499,102.49409 115.87934,191.53414 126.74123,253.97404 4.20892,24.19509 6.93025,20.40283 -6.50034,29.13985 -64.18664,41.75544 -139.40013,59.24733 -212.5303,49.4267 z"
       id="path4140"
       sodipodi:nodetypes="cssssssssssc" />
    <path
       style="fill:#fbfcff;fill-opacity:1;stroke:#e5cdcd;stroke-width:1px;stroke-linecap:butt;stroke-linejoin:miter;stroke-opacity:1"
       d="m 434.28572,522.36218 c 0,0 -84.28572,-12.85714 -151.42857,61.42857 0,0 -24.28572,-7.14285 20,-71.42857 0,0 -40,5.71429 -84.28572,28.57143 0,0 22.85715,-164.28571 138.57143,-244.28571 0,0 -85.71428,148.57142 -74.28571,182.85714 0,0 72.85714,-15.71429 98.57143,-8.57143 0,0 -37.14286,31.42857 -35.71429,40 0,0 91.42857,-8.57143 88.57143,11.42857 z"
       id="path4142" />
    <path
       style="fill:#507cff;fill-opacity:1;stroke:none"
       d="M 508.57143,610.93361 C 497.14286,370.93361 440,342.36218 440,342.36218 c 0,0 68.57143,2.85715 128.57143,238.57143 0,0 -13.57143,17.85714 -60,30 z"
       id="path4152" />
  </g>
  <g
     inkscape:groupmode="layer"
     id="layer5"
     inkscape:label="Layer#3"
     transform="translate(35.266022,32.575436)">
    <path
       style="fill:none;stroke:#000000;stroke-width:15;stroke-linecap:round;stroke-linejoin:round;stroke-miterlimit:4;stroke-opacity:1;stroke-dasharray:none"
       d="m 157.14285,132.36218 c 0,0 217.14286,-214.285712 457.14286,2.85715"
       id="path4235" />
    <path
       style="fill:none;stroke:#000000;stroke-width:15;stroke-linecap:round;stroke-linejoin:round;stroke-miterlimit:4;stroke-opacity:1;stroke-dasharray:none"
       d="m 222.72628,161.86793 c 0,0 160.31406,-158.2046644 337.50328,2.1094"
       id="path4235-7" />
    <path
       style="fill:none;stroke:#000000;stroke-width:15;stroke-linecap:round;stroke-linejoin:round;stroke-miterlimit:4;stroke-opacity:1;stroke-dasharray:none"
       d="m 288.24582,195.7013 c 0,0 97.17095,-95.89239 204.57042,1.27857"
       id="path4235-7-7" />
    <path
       style="fill:none;stroke:#000000;stroke-width:18.08623314;stroke-linecap:round;stroke-linejoin:round;stroke-miterlimit:4;stroke-opacity:1;stroke-dasharray:none"
       d="m 112.97169,90.286921 c 0,0 261.81975,-258.374741 551.19948,3.445006"
       id="path4235-4" />
  </g>
</svg>
